<svg width="32" height="32" viewBox="0 0 32 32" fill="none" xmlns="http://www.w3.org/2000/svg">
<rect width="32" height="32" rx="16" fill="#68E9BA"/>
<path d="M16.1367 24.94C14.7969 24.94 13.498 24.6214 12.2399 23.9842C10.9982 23.3306 9.97699 22.334 9.17639 20.9942C8.39213 19.6381 8 17.9715 8 15.9945C8 14.0175 8.39213 12.3591 9.17639 11.0193C9.97699 9.66322 10.9982 8.65839 12.2399 8.00484C13.498 7.33495 14.7969 7 16.1367 7C17.3948 7 18.5794 7.25325 19.6904 7.75975C20.8014 8.24992 21.7409 9.01784 22.5089 10.0635C23.2931 11.0929 23.7833 12.3755 23.9793 13.9113L20.8913 14.1564C20.6136 12.6532 20.0907 11.5258 19.3228 10.7743C18.5712 10.0063 17.5092 9.62238 16.1367 9.62238C15.1074 9.62238 14.2087 9.89197 13.4408 10.4311C12.6729 10.9703 12.0765 11.7219 11.6517 12.6859C11.2433 13.6499 11.039 14.7528 11.039 15.9945C11.039 17.2526 11.2433 18.3636 11.6517 19.3276C12.0765 20.2753 12.6729 21.0187 13.4408 21.5579C14.2087 22.0807 15.1074 22.3421 16.1367 22.3421C17.5419 22.3421 18.6202 21.9827 19.3718 21.2638C20.1234 20.5285 20.6299 19.4175 20.8913 17.9307L23.9793 18.1757C23.7833 19.7116 23.2931 20.986 22.5089 21.999C21.7409 23.012 20.8014 23.7554 19.6904 24.2293C18.5794 24.7031 17.3948 24.94 16.1367 24.94Z" fill="#191919"/>
</svg>
